HIERARCHY
ROOT Hips
{
  OFFSET 0 0 0
  CHANNELS 6 Xposition Yposition Zposition Zrotation Yrotation Xrotation
  JOINT LeftThigh
  {
    OFFSET 8.409438 0 -5.917753
    CHANNELS 3 Zrotation Yrotation Xrotation
    JOINT LeftLeg
    {
      OFFSET 0 0 -42.358652
      CHANNELS 3 Zrotation Yrotation Xrotation
      JOINT LeftFoot
      {
        OFFSET 0 0 -39.357303
        CHANNELS 3 Zrotation Yrotation Xrotation
      }
    }
  }
  JOINT RightThigh
  {
    OFFSET -8.409438 0 -5.917753
    CHANNELS 3 Zrotation Yrotation Xrotation
    JOINT RightLeg
    {
      OFFSET 0 0 -42.358652
      CHANNELS 3 Zrotation Yrotation Xrotation
      JOINT RightFoot
      {
        OFFSET 0 0 -39.357303
        CHANNELS 3 Zrotation Yrotation Xrotation
      }
    }
  }
  JOINT SpineLow
  {
    OFFSET 0 0 4.719101
    CHANNELS 3 Zrotation Yrotation Xrotation
    JOINT SpineMid
    {
      OFFSET 0 0 12.899191
      CHANNELS 3 Zrotation Yrotation Xrotation
      JOINT Chest
      {
        OFFSET 0 0 12.899191
        CHANNELS 3 Zrotation Yrotation Xrotation
        JOINT LeftShoulder
        {
          OFFSET 7.550562 1.41573 9.438202
          CHANNELS 3 Zrotation Yrotation Xrotation
          JOINT LeftArm
          {
            OFFSET 9.155056 0 4.247191
            CHANNELS 3 Zrotation Yrotation Xrotation
            JOINT LeftForearm
            {
              OFFSET 0 0 25.771955
              CHANNELS 3 Zrotation Yrotation Xrotation
              JOINT LeftHand
              {
                OFFSET 0 0 25.197169
                CHANNELS 3 Zrotation Yrotation Xrotation
              }
            }
          }
        }
        JOINT RightShoulder
        {
          OFFSET -7.550562 1.41573 9.438202
          CHANNELS 3 Zrotation Yrotation Xrotation
          JOINT RightArm
          {
            OFFSET -9.155056 0 4.247191
            CHANNELS 3 Zrotation Yrotation Xrotation
            JOINT RightForearm
            {
              OFFSET 0 0 -25.771955
              CHANNELS 3 Zrotation Yrotation Xrotation
              JOINT RightHand
              {
                OFFSET 0 0 -25.197169
                CHANNELS 3 Zrotation Yrotation Xrotation
              }
            }
          }
        }
        JOINT Neck
        {
          OFFSET 0 0 15.101124
          CHANNELS 3 Zrotation Yrotation Xrotation
          JOINT Head
          {
            OFFSET 0 0 11.325843
            CHANNELS 3 Zrotation Yrotation Xrotation
            End Site
            {
              OFFSET 0 0 14.157303
            }
          }
        }
      }
    }
  }
}
MOTION
Frames: 12
Frame Time: 0.0
0.0  101.685394  0.0  0.438808  15.467398  -99.028387  5.442529  -20.798451  4.76229  -4.611703  11.596614  20.666116  -2.160684  3.425713  1.598845  -12.371182  12.152503  1.05337  -4.361371  2.998723  16.953609  -2.821629  2.166897  -1.24521  -2.421738  0.103409  2.247683  -6.603513  0.506827  6.126492  -6.603513  0.506827  6.126492  -14.621223  28.020396  -0.125979  103.285255  47.922334  175.064011  -20.475992  2.882395  86.526883  67.013611  -17.226364  -16.047341  20.688031  -8.443048  8.83833  104.923388  44.865605  34.773326  31.942737  11.267819  -6.552414  98.450329  -2.007491  -17.540855  3.025452  0.546325  1.920062  2.267382  0.419266  1.437373  
0.0  101.685394  0.0  0.285159  15.119939  -98.831054  5.698253  -20.785711  4.590981  -4.342409  11.280494  20.805631  -2.39245  3.363382  1.439463  -12.005644  11.699702  0.551247  -4.21194  3.163109  17.190077  -2.882006  2.287527  -1.214814  -2.335355  0.060655  2.2323  -6.371674  0.38074  6.089433  -6.371674  0.38074  6.089433  -14.930128  28.04667  -0.188781  103.673843  47.682848  175.079726  -20.691321  2.60585  86.857511  66.904859  -16.229016  -16.45956  20.88746  -8.496587  8.881352  105.585069  44.526645  35.212098  30.517856  11.126979  -7.13009  98.249412  -1.573715  -17.921717  2.924835  0.572939  1.930148  2.191824  0.438958  1.444897  
0.0  101.685394  0.0  0.069858  14.698763  -98.710312  5.737424  -20.869503  4.491374  -4.159654  11.06665  20.871704  -2.597618  3.259665  1.281106  -11.850814  11.260917  0.023313  -3.950529  3.265312  17.424006  -2.697565  2.469984  -1.116782  -2.293056  0.024058  2.212871  -6.259636  0.275181  6.040159  -6.259637  0.275181  6.04016  -15.041782  28.03101  -0.195602  104.381049  47.25795  175.21213  -20.895173  2.229687  87.433386  66.800331  -14.759974  -17.08809  21.483797  -8.670972  9.095523  106.81837  44.017911  35.996288  28.38846  10.856554  -7.726022  98.04263  -1.229265  -18.01563  2.920273  0.615755  1.977742  2.188218  0.471285  1.48039  
0.0  101.685394  0.0  -0.223517  14.09128  -98.683334  5.581897  -20.988686  4.482425  -3.723778  10.838523  21.140766  -2.589328  3.232768  1.223186  -11.889816  10.827396  -0.466886  -3.59064  3.32581  17.613168  -2.620825  2.492531  -1.077948  -2.229833  -0.044814  2.210412  -6.093268  0.081298  6.040169  -6.093268  0.081298  6.040169  -15.291633  28.1138  -0.197972  105.330454  46.828953  175.668622  -21.111658  1.796679  88.047731  66.770734  -12.79075  -17.947541  21.770861  -8.735516  9.231734  108.483887  43.374775  37.009574  25.928855  10.575528  -8.555104  97.834383  -0.929563  -17.823173  3.017927  0.741045  2.05359  2.260954  0.565949  1.536557  
0.0  101.685394  0.0  -0.168471  13.799452  -98.452007  5.074217  -20.691145  4.462303  -3.486672  10.643393  21.275073  -2.358563  3.244171  1.237498  -12.635381  10.842486  -1.188229  -3.173667  3.334354  17.72899  -2.105686  2.577516  -1.013234  -2.27172  -0.021597  2.167275  -6.205728  0.144412  5.920057  -6.205729  0.144412  5.920056  -15.157592  28.011184  0.097748  106.64741  46.510034  176.344252  -21.228154  1.565915  88.846773  66.914072  -10.374409  -18.942756  22.360234  -9.123174  9.455256  110.021239  42.81391  38.043201  23.442647  10.359232  -9.486958  97.620735  -0.623282  -17.358067  3.295768  0.793341  2.166874  2.46901  0.606721  1.620908  
0.0  101.685394  0.0  -0.472196  12.452633  -98.480804  5.340058  -20.925824  4.660145  -3.190988  10.496226  21.431207  -2.091942  3.279491  1.248587  -12.723564  10.475042  -1.648576  -2.633179  3.285417  17.7478  -1.628994  2.50041  -0.975254  -2.184767  -0.106179  2.155228  -5.975852  -0.095222  5.895165  -5.975852  -0.095222  5.895165  -15.031815  28.191583  0.393294  108.398949  46.322543  177.305522  -21.200108  1.584408  89.762188  67.215161  -7.529673  -19.756833  22.799107  -9.240035  9.798811  111.068704  42.30986  38.695085  21.272405  10.372799  -10.468439  97.382952  -0.331838  -16.652322  3.706203  1.055339  2.290368  2.775665  0.805442  1.711402  
0.0  101.685394  0.0  -0.530087  10.576089  -98.597517  5.76981  -20.99975  5.090176  -2.685017  10.350413  21.604409  -1.695067  3.372155  1.327304  -12.597239  10.322865  -2.020461  -1.633148  3.177655  17.744981  -1.261784  2.380062  -0.966673  -2.073884  -0.146175  2.148287  -5.67661  -0.214837  5.879714  -5.67661  -0.214837  5.879714  -14.597833  28.384524  0.885341  110.668302  46.240368  178.59905  -20.909634  1.78261  90.746184  67.529819  -4.660131  -20.188383  23.256049  -9.359819  10.242579  111.509398  41.951552  38.776348  19.497569  10.649847  -11.465364  97.177367  -0.030407  -15.685526  4.320887  1.367343  2.451804  3.235087  1.042922  1.829205  
0.0  101.685394  0.0  -0.732084  8.56346  -98.636249  5.991293  -21.222987  5.434162  -1.730536  10.19768  21.951502  -1.432318  3.477271  1.364652  -12.598175  10.017731  -2.461611  -0.713079  3.022207  17.630776  -0.671889  2.247112  -0.926678  -2.006243  -0.23539  2.122584  -5.499744  -0.466439  5.816891  -5.499744  -0.466439  5.816891  -13.89193  28.783397  1.459316  113.287242  46.041194  -179.923495  -20.562941  1.646611  91.810492  67.581065  -2.170752  -19.690028  23.6356  -9.262064  10.836821  111.655567  41.760675  38.508829  17.959971  11.113883  -12.573715  97.012075  0.348813  -14.500338  5.17001  1.781383  2.63061  3.869611  1.358435  1.957891  
0.0  101.685394  0.0  -0.882879  6.213047  -98.744431  6.032902  -21.304651  5.73734  -0.50444  10.019697  22.460104  -0.944907  3.571728  1.519885  -12.000265  9.672467  -2.650228  -0.006361  2.846566  17.388698  -0.04952  2.150725  -0.870103  -2.001324  -0.283468  2.10462  -5.490456  -0.599562  5.771839  -5.490456  -0.599562  5.771839  -12.514972  29.030987  2.260549  116.20241  45.773234  -178.400595  -20.197274  1.02694  93.013469  67.263619  -0.332832  -18.152463  24.269843  -9.328436  11.429519  111.817445  41.571846  38.164247  16.450214  11.703365  -13.941307  96.880507  0.755587  -13.154942  6.409344  2.127929  2.808538  4.796794  1.625651  2.084107  
0.0  101.685394  0.0  -1.038745  3.717725  -98.836626  6.528182  -21.530003  6.104525  0.661613  9.835225  22.990957  -0.74996  3.647644  1.579231  -11.643263  9.34678  -2.965478  1.143808  2.588105  17.186587  0.429676  2.012121  -0.804842  -1.982668  -0.385564  2.113542  -5.448648  -0.879058  5.80461  -5.448649  -0.879058  5.80461  -11.395107  29.530836  2.85663  119.247551  45.272878  -177.244767  -19.99486  -0.195218  94.556623  66.741862  0.593425  -15.429485  24.445715  -9.077921  11.911702  112.018429  41.266179  37.830205  14.87791  12.423831  -15.61824  96.757857  1.220307  -11.71741  7.691829  2.669772  2.909486  5.755267  2.039378  2.148498  
0.0  101.685394  0.0  -1.135342  0.770686  -99.012437  7.666116  -21.668186  6.577573  1.140565  9.591698  23.095748  -0.121489  3.785221  1.90689  -10.85291  8.983076  -3.215868  2.25392  2.328642  17.010036  1.021956  1.870914  -0.719578  -1.91477  -0.452448  2.136106  -5.269512  -1.065754  5.870912  -5.269512  -1.065754  5.870911  -10.129303  29.93231  3.879843  122.438205  44.863054  -176.421217  -20.034135  -1.74808  96.405029  66.344535  0.583873  -11.761264  24.346636  -8.969175  12.287521  112.17032  40.836224  37.446817  13.183898  13.263362  -17.683287  96.718541  1.759766  -10.259866  8.980748  3.1001  2.975727  6.719004  2.369465  2.186211  
0.0  101.685394  0.0  -1.153354  -2.377687  -99.212313  9.062965  -21.757956  6.997449  1.796166  9.282685  23.525222  0.214789  3.87651  2.049028  -9.52285  8.628676  -3.316082  3.10761  2.146165  16.821977  1.516953  1.65001  -0.69781  -1.810306  -0.494364  2.183761  -4.988773  -1.185835  6.002846  -4.988773  -1.185835  6.002846  -9.002109  30.178506  5.16281  125.987652  44.320928  -175.704458  -20.133476  -3.658442  98.753601  66.483555  -0.347362  -7.995307  23.926664  -8.880956  12.292245  112.170406  40.149166  37.009971  11.2384  14.144336  -20.257048  96.85572  2.337566  -8.778841  10.342926  3.470435  2.994482  7.738026  2.654466  2.187113  
